<svg width="373" height="302" viewBox="0 0 373 302" fill="none" xmlns="http://www.w3.org/2000/svg">
<path d="M59.6255 62.943C61.8735 27.1287 92.2795 0 128.164 0H244.496C280.524 0 310.983 27.3426 313.109 63.3074C315.642 106.136 315.478 142.505 312.758 185.141C310.614 218.737 283.726 245.44 250.12 247.418C204.942 250.078 167.264 250.032 122.613 247.39C89.1292 245.408 62.2622 218.906 60.004 185.44C57.0857 142.19 56.9444 105.656 59.6255 62.943Z" fill="#D9D9D9"/>
<path d="M296.023 252.852C311.158 250.483 325 262.053 325 277.373C325 290.974 313.944 302 300.343 302C214.166 302 156.788 302 70.598 302C57.0292 302 46 291 46 277.432C46 262.105 59.8773 250.553 75.0129 252.962C156.766 265.977 213.123 265.83 296.023 252.852Z" fill="#D9D9D9"/>
<path d="M327.859 30.2823C326.451 16.8263 336.913 5 350.443 5C362.901 5 373 15.0993 373 27.5574V225.33C373 237.85 362.85 248 350.33 248C336.818 248 326.326 236.248 327.662 222.802C334.863 150.292 335.276 101.163 327.859 30.2823Z" fill="#D9D9D9"/>
<path d="M45.1413 30.2823C46.5494 16.8263 36.0869 5 22.5574 5C10.0993 5 1.90735e-06 15.0993 1.90735e-06 27.5574V225.33C1.90735e-06 237.85 10.1497 248 22.67 248C36.1822 248 46.6737 236.248 45.3382 222.802C38.1366 150.292 37.7242 101.163 45.1413 30.2823Z" fill="#D9D9D9"/>
</svg>
